<?xml version="1.0" encoding="UTF-8" standalone="no"?>
<!-- Created with Inkscape (http://www.inkscape.org/) -->

<svg
   width="84.447998mm"
   height="27.662285mm"
   viewBox="0 0 84.447999 27.662285"
   version="1.1"
   id="svg1"
   inkscape:version="1.4.3 (0d15f75042, 2025-12-25)"
   sodipodi:docname="logoTextAsVector.svg"
   inkscape:export-filename="logo@76.png"
   inkscape:export-xdpi="22.859037"
   inkscape:export-ydpi="22.859037"
   xmlns:inkscape="http://www.inkscape.org/namespaces/inkscape"
   xmlns:sodipodi="http://sodipodi.sourceforge.net/DTD/sodipodi-0.dtd"
   xmlns="http://www.w3.org/2000/svg"
   xmlns:svg="http://www.w3.org/2000/svg">
  <sodipodi:namedview
     id="namedview1"
     pagecolor="#50505000"
     bordercolor="#eeeeeeff"
     borderopacity="1"
     inkscape:showpageshadow="0"
     inkscape:pageopacity="0"
     inkscape:pagecheckerboard="true"
     inkscape:deskcolor="#505050ff"
     inkscape:document-units="mm"
     showguides="true"
     inkscape:zoom="2.2265349"
     inkscape:cx="128.67528"
     inkscape:cy="163.48273"
     inkscape:window-width="2560"
     inkscape:window-height="1403"
     inkscape:window-x="0"
     inkscape:window-y="0"
     inkscape:window-maximized="1"
     inkscape:current-layer="layer2">
    <inkscape:page
       x="1.270121e-24"
       y="0"
       width="84.448006"
       height="27.662285"
       id="page4"
       margin="0"
       bleed="0"
       inkscape:export-filename="logo@1000.png"
       inkscape:export-xdpi="300.78"
       inkscape:export-ydpi="300.78" />
  </sodipodi:namedview>
  <defs
     id="defs1">
    <rect
       x="272.35214"
       y="237.46405"
       width="178.68777"
       height="104.45263"
       id="rect1-7-3-9-2" />
    <rect
       x="272.35214"
       y="237.46405"
       width="141.80318"
       height="84.406654"
       id="rect1-3-2-0" />
  </defs>
  <g
     inkscape:groupmode="layer"
     id="layer2"
     inkscape:label="AreaVersion"
     transform="translate(-7.6521893,-25.979567)">
    <path
       style="font-size:74.6667px;font-family:'Nova Square';-inkscape-font-specification:'Nova Square, Normal';font-variant-numeric:tabular-nums;letter-spacing:-3px;white-space:pre;fill:#585a57;stroke-width:13.2283;stroke-linecap:round;stroke-miterlimit:2"
       d="m 286.9349,258.09015 v 23.33334 h 16.04168 q 5.46875,0 5.46875,-6.19792 v -10.9375 q 0,-6.19792 -5.46875,-6.19792 z m -7.29167,49.94794 v -54.68753 l 3.86459,-1.82292 h 19.46876 q 12.76042,0 12.76042,12.76043 v 10.9375 q 0,11.88543 -11.04688,12.68751 l 11.92188,17.09897 -6.41667,3.02604 h -0.36458 L 295.79428,287.986 h -8.85938 v 16.77084 l -6.92708,3.28125 z m 59.48962,-8.02084 h 11.30208 q 5.46876,0 5.46876,-6.19792 v -29.53126 q 0,-6.19792 -5.46876,-6.19792 h -11.30208 q -5.46876,0 -5.46876,6.19792 v 29.53126 q 0,6.19792 5.46876,6.19792 z m 0,6.5625 q -12.76043,0 -12.76043,-12.76042 v -29.53126 q 0,-12.76043 12.76043,-12.76043 h 11.30208 q 12.76043,0 12.76043,12.76043 v 29.53126 q 0,12.76042 -12.76043,12.76042 z"
       id="text1-6-7-5"
       transform="matrix(0.26458333,0,0,0.26458333,-61.017274,-34.118825)"
       aria-label="RO" />
    <path
       style="font-size:74.6667px;font-family:'Nova Square';-inkscape-font-specification:'Nova Square, Normal';font-variant-numeric:tabular-nums;letter-spacing:-3px;white-space:pre;fill:#585a57;stroke-width:13.2283;stroke-linecap:round;stroke-miterlimit:2"
       d="m 279.64323,308.03809 v -43.75002 q 0,-12.76043 12.76043,-12.76043 h 11.30208 q 12.76043,0 12.76043,12.76043 v 40.46877 l -6.92709,3.28125 h -0.36458 v -25.66668 h -22.2396 v 22.38543 l -6.92708,3.28125 z m 7.29167,-32.3021 h 22.2396 v -11.44792 q 0,-6.19792 -5.46876,-6.19792 h -11.30208 q -5.46876,0 -5.46876,6.19792 z m 48.40628,-17.64584 v 23.33334 h 16.04167 q 5.46875,0 5.46875,-6.19792 v -10.9375 q 0,-6.19792 -5.46875,-6.19792 z m -7.29167,49.94794 v -54.68753 l 3.86458,-1.82292 h 19.46876 q 12.76042,0 12.76042,12.76043 v 10.9375 q 0,11.88543 -11.04688,12.68751 l 11.92188,17.09897 -6.41667,3.02604 h -0.36458 L 344.20055,287.986 h -8.85937 v 16.77084 l -6.92709,3.28125 z m 59.48961,-8.02084 h 11.30209 q 5.46875,0 5.46875,-6.19792 v -29.53126 q 0,-6.19792 -5.46875,-6.19792 h -11.30209 q -5.46875,0 -5.46875,6.19792 v 29.53126 q 0,6.19792 5.46875,6.19792 z m 0,6.5625 q -12.76042,0 -12.76042,-12.76042 v -29.53126 q 0,-12.76043 12.76042,-12.76043 h 11.30209 q 12.76042,0 12.76042,12.76043 v 29.53126 q 0,12.76042 -12.76042,12.76042 z"
       id="text1-3-0-0-5"
       transform="matrix(0.26458333,0,0,0.26458333,-22.004544,-34.118825)"
       aria-label="ARO" />
    <path
       d="m 12.941366,28.910412 v 1.800407 h 24.611418 l 0.01343,7.476546 0.599964,0.590661 1.265556,-1.278991 -0.06666,-0.06563 -0.0155,-8.522994 z"
       style="baseline-shift:baseline;display:inline;overflow:visible;opacity:1;vector-effect:none;fill:#585a57;stroke-miterlimit:2;enable-background:accumulate;stop-color:#000000;stop-opacity:1"
       id="path6" />
    <path
       d="m 42.91318,40.927766 -1.265556,1.279508 8.633582,8.503874 h 40.546879 v -1.800924 h -39.81049 z"
       style="baseline-shift:baseline;display:inline;overflow:visible;opacity:1;vector-effect:none;fill:#585a57;stroke-miterlimit:2;enable-background:accumulate;stop-color:#000000;stop-opacity:1"
       id="path5" />
    <path
       style="fill:none;stroke:#db4e4e;stroke-width:1.8;stroke-linecap:butt;stroke-miterlimit:2;stroke-dasharray:none;stroke-opacity:1"
       d="m 13.383906,49.810729 25.08227,-1e-5 v -8 l 12.18307,-12 h 39.119812"
       id="path7-8-6-6"
       sodipodi:nodetypes="ccccc" />
    <path
       style="fill:none;stroke:#db4e4e;stroke-width:1.8;stroke-linecap:square;stroke-miterlimit:2;stroke-dasharray:none"
       d="m 90.827398,29.810719 -2.55835,-2.55836"
       id="path1-0-5"
       sodipodi:nodetypes="cc" />
    <path
       style="fill:none;stroke:#db4e4e;stroke-width:1.8;stroke-linecap:square;stroke-miterlimit:2;stroke-dasharray:none"
       d="m 90.827388,29.810719 -2.55834,2.55835"
       id="path2-6-6"
       sodipodi:nodetypes="cc" />
    <path
       style="fill:#585a57;fill-opacity:1;stroke:none;stroke-width:1.67808;stroke-linecap:square;stroke-miterlimit:2"
       d="m 12.066006,28.910549 0.85822,1.80034 h 0.94879 v -1.80034 z"
       id="path3-9"
       sodipodi:nodetypes="ccccc" />
    <path
       style="fill:#585a57;fill-opacity:1;stroke:none;stroke-width:1.68593;stroke-linecap:square;stroke-miterlimit:2"
       d="m 87.405778,50.707289 -0.86224,-1.80078 h -0.78594 v 1.80841 z"
       id="path3-3-3" />
    <path
       style="fill:#db4e4e;fill-opacity:1;stroke:none;stroke-width:1.67808;stroke-linecap:square;stroke-miterlimit:2"
       d="m 12.118816,48.918329 0.85823,1.7924 h 0.84316 v -1.8 z"
       id="path3-7-7"
       sodipodi:nodetypes="ccccc" />
    <path
       style="fill:none;stroke:#585a57;stroke-width:1.8;stroke-linecap:square;stroke-miterlimit:2;stroke-dasharray:none;stroke-opacity:1"
       d="m 90.827398,49.810709 -2.55835,-2.55836"
       id="path1-0-2-4"
       sodipodi:nodetypes="cc" />
    <path
       style="fill:none;stroke:#585a57;stroke-width:1.8;stroke-linecap:square;stroke-miterlimit:2;stroke-dasharray:none;stroke-opacity:1"
       d="m 90.827388,49.810709 -2.55834,2.55835"
       id="path2-6-7-5"
       sodipodi:nodetypes="cc" />
  </g>
</svg>
