<svg xmlns="http://www.w3.org/2000/svg" xmlns:xlink="http://www.w3.org/1999/xlink" viewBox="0 0 260 65"><defs><style>.a{fill:none;}.b{fill:#575a57;}.c{clip-path:url(#a);}.d{fill:#ee3224;}</style><clipPath id="a" transform="translate(0 0)"><rect class="a" width="260" height="65"/></clipPath></defs><title>logo</title><polygon class="b" points="104.16 40.64 104.16 26.82 99.22 26.82 99.22 24.01 112.41 24.01 112.41 26.82 107.51 26.82 107.51 40.64 104.16 40.64"/><g class="c"><path class="b" d="M118,31h2.49a13.32,13.32,0,0,0,3-.2,1.78,1.78,0,0,0,.94-.71,2.11,2.11,0,0,0,.34-1.24,2,2,0,0,0-.45-1.36,2,2,0,0,0-1.26-.65q-.4-.06-2.46-.06H118Zm-3.35,9.6V24h7.07a12,12,0,0,1,3.87.45,3.86,3.86,0,0,1,1.94,1.59,4.82,4.82,0,0,1,.72,2.62,4.4,4.4,0,0,1-1.1,3.09,5.25,5.25,0,0,1-3.28,1.54,8,8,0,0,1,1.8,1.39,19.62,19.62,0,0,1,1.9,2.7l2,3.25h-4L123.14,37a24.41,24.41,0,0,0-1.78-2.44,2.69,2.69,0,0,0-1-.69,5.73,5.73,0,0,0-1.7-.19H118v7Z" transform="translate(0 0)"/><path class="b" d="M134.18,32.32a6.22,6.22,0,0,0,1.3,4.28,4.29,4.29,0,0,0,3.32,1.46,4.24,4.24,0,0,0,3.3-1.45,6.33,6.33,0,0,0,1.29-4.33A6.24,6.24,0,0,0,142.14,28a4.67,4.67,0,0,0-6.69,0,6.26,6.26,0,0,0-1.27,4.29m-3.46.12a10.53,10.53,0,0,1,.76-4.27A7.76,7.76,0,0,1,133,25.9a6.4,6.4,0,0,1,2.15-1.5,9.07,9.07,0,0,1,3.58-.66A7.84,7.84,0,0,1,144.65,26a8.73,8.73,0,0,1,2.2,6.34,8.68,8.68,0,0,1-2.19,6.29,7.73,7.73,0,0,1-5.85,2.27,7.81,7.81,0,0,1-5.9-2.26,8.55,8.55,0,0,1-2.19-6.22" transform="translate(0 0)"/></g><polygon class="b" points="149.5 40.64 149.5 24.01 152.75 24.01 159.63 35.19 159.63 24.01 162.73 24.01 162.73 40.64 159.38 40.64 152.6 29.69 152.6 40.64 149.5 40.64"/><g class="c"><path class="b" d="M169.65,31h2.48a13.44,13.44,0,0,0,3-.2,1.81,1.81,0,0,0,.94-.71,2.11,2.11,0,0,0,.34-1.24,2,2,0,0,0-.45-1.36,2.07,2.07,0,0,0-1.26-.65q-.42-.06-2.46-.06h-2.62Zm-3.35,9.6V24h7.06a12.1,12.1,0,0,1,3.88.45,3.84,3.84,0,0,1,1.93,1.59,4.74,4.74,0,0,1,.73,2.62,4.44,4.44,0,0,1-1.1,3.09,5.25,5.25,0,0,1-3.28,1.54,7.93,7.93,0,0,1,1.79,1.39,18.64,18.64,0,0,1,1.91,2.7l2,3.25h-4L174.82,37A24.41,24.41,0,0,0,173,34.57a2.77,2.77,0,0,0-1-.69,5.77,5.77,0,0,0-1.7-.19h-.68v7Z" transform="translate(0 0)"/><path class="b" d="M183.05,24h3.36v9a19.39,19.39,0,0,0,.12,2.78,2.68,2.68,0,0,0,1,1.64,3.59,3.59,0,0,0,2.22.62,3.37,3.37,0,0,0,2.16-.59,2.31,2.31,0,0,0,.88-1.43,18.47,18.47,0,0,0,.15-2.83V24h3.35v8.73a22.75,22.75,0,0,1-.27,4.24,4.61,4.61,0,0,1-1,2.08,5.13,5.13,0,0,1-1.95,1.36,8.49,8.49,0,0,1-3.2.5,9.18,9.18,0,0,1-3.62-.55,5,5,0,0,1-1.94-1.43,4.51,4.51,0,0,1-1-1.84,20.12,20.12,0,0,1-.33-4.22Z" transform="translate(0 0)"/><path class="b" d="M203.2,26.82v11h2.52a9.62,9.62,0,0,0,2-.16,3.19,3.19,0,0,0,1.36-.69,3.47,3.47,0,0,0,.89-1.61,10.69,10.69,0,0,0,.34-3,9.86,9.86,0,0,0-.34-3,3.91,3.91,0,0,0-1-1.61,3.29,3.29,0,0,0-1.56-.78,16,16,0,0,0-2.77-.16ZM199.85,24H206a12,12,0,0,1,3.17.32,5.57,5.57,0,0,1,2.51,1.53,7.15,7.15,0,0,1,1.59,2.69,12.13,12.13,0,0,1,.55,3.93A10.94,10.94,0,0,1,213.3,36,7.31,7.31,0,0,1,211.51,39a5.89,5.89,0,0,1-2.36,1.33,10.3,10.3,0,0,1-3,.35h-6.33Z" transform="translate(0 0)"/></g><polygon class="b" points="100.32 48.09 100.32 64.72 112.96 64.72 112.96 61.9 103.67 61.9 103.67 57.4 112.02 57.4 112.02 54.59 103.67 54.59 103.67 50.9 112.64 50.9 112.64 48.09 100.32 48.09"/><polygon class="b" points="125.96 48.09 125.96 59.27 119.08 48.09 115.83 48.09 115.83 64.72 118.94 64.72 118.94 53.77 125.71 64.72 129.06 64.72 129.06 48.09 125.96 48.09"/><g class="c"><path class="b" d="M140.35,58.63V55.81h7.24v6.62a9.12,9.12,0,0,1-3.06,1.79,11.13,11.13,0,0,1-4.06.78,9.26,9.26,0,0,1-4.56-1.09A7,7,0,0,1,133,60.78a10.12,10.12,0,0,1-1-4.43,9.52,9.52,0,0,1,1.09-4.61,7.33,7.33,0,0,1,3.19-3.09,8.67,8.67,0,0,1,4-.83,7.93,7.93,0,0,1,4.84,1.3,5.81,5.81,0,0,1,2.24,3.58l-3.33.62a3.55,3.55,0,0,0-1.33-1.93,4,4,0,0,0-2.42-.7,4.57,4.57,0,0,0-3.51,1.39,5.86,5.86,0,0,0-1.3,4.14,6.46,6.46,0,0,0,1.32,4.43,4.39,4.39,0,0,0,3.45,1.48,5.67,5.67,0,0,0,2.12-.41,7.23,7.23,0,0,0,1.83-1V58.63Z" transform="translate(0 0)"/></g><rect class="b" x="150.59" y="48.09" width="3.35" height="16.63"/><polygon class="b" points="167.3 48.09 167.3 59.27 160.43 48.09 157.18 48.09 157.18 64.72 160.28 64.72 160.28 53.77 167.05 64.72 170.41 64.72 170.41 48.09 167.3 48.09"/><polygon class="b" points="173.97 48.09 173.97 64.72 186.61 64.72 186.61 61.9 177.32 61.9 177.32 57.4 185.67 57.4 185.67 54.59 177.32 54.59 177.32 50.9 186.29 50.9 186.29 48.09 173.97 48.09"/><polygon class="b" points="189.48 48.09 189.48 64.72 202.12 64.72 202.12 61.9 192.83 61.9 192.83 57.4 201.18 57.4 201.18 54.59 192.83 54.59 192.83 50.9 201.8 50.9 201.8 48.09 189.48 48.09"/><g class="c"><path class="b" d="M208.35,55.12h2.48a13.26,13.26,0,0,0,3-.2,1.8,1.8,0,0,0,1-.71,2.22,2.22,0,0,0,.34-1.25,2,2,0,0,0-.45-1.35,2.07,2.07,0,0,0-1.27-.65c-.27,0-1.09-.06-2.45-.06h-2.62ZM205,64.72V48.09h7.07a12.1,12.1,0,0,1,3.88.45,3.74,3.74,0,0,1,1.93,1.59,4.74,4.74,0,0,1,.73,2.62,4.44,4.44,0,0,1-1.1,3.09,5.33,5.33,0,0,1-3.28,1.54A7.65,7.65,0,0,1,216,58.77a19.47,19.47,0,0,1,1.91,2.7l2,3.25h-4l-2.42-3.63a23.28,23.28,0,0,0-1.77-2.44,2.5,2.5,0,0,0-1-.69,5.34,5.34,0,0,0-1.69-.19h-.68v6.95Z" transform="translate(0 0)"/></g><rect class="b" x="221.66" y="48.09" width="3.35" height="16.63"/><polygon class="b" points="238.38 48.09 238.38 59.27 231.5 48.09 228.25 48.09 228.25 64.72 231.35 64.72 231.35 53.77 238.12 64.72 241.48 64.72 241.48 48.09 238.38 48.09"/><g class="c"><path class="b" d="M252.76,58.63V55.81H260v6.62a8.92,8.92,0,0,1-3.06,1.79,11.09,11.09,0,0,1-4.06.78,9.2,9.2,0,0,1-4.55-1.09,7,7,0,0,1-2.92-3.13,10.12,10.12,0,0,1-1-4.43,9.52,9.52,0,0,1,1.09-4.61,7.28,7.28,0,0,1,3.19-3.09,8.6,8.6,0,0,1,4-.83,7.91,7.91,0,0,1,4.84,1.3,5.82,5.82,0,0,1,2.25,3.58l-3.34.62a3.48,3.48,0,0,0-1.32-1.93,4,4,0,0,0-2.43-.7,4.54,4.54,0,0,0-3.5,1.39,5.86,5.86,0,0,0-1.31,4.14,6.46,6.46,0,0,0,1.32,4.43,4.4,4.4,0,0,0,3.46,1.48,5.74,5.74,0,0,0,2.12-.41,7,7,0,0,0,1.82-1V58.63Z" transform="translate(0 0)"/></g><rect class="d" x="72.7" width="17.44" height="16.51"/><rect class="d" x="72.7" y="24.08" width="17.44" height="16.51"/><rect class="d" x="72.7" y="48.15" width="17.44" height="16.51"/><polygon class="d" points="0 0 48.42 47.3 48.42 64.66 64.85 64.66 64.85 0 0 0"/></svg>