<?xml version="1.0" encoding="UTF-8" standalone="no"?>
<!-- Created with Inkscape (http://www.inkscape.org/) -->

<svg
   version="1.1"
   id="svg1"
   width="1458.52"
   height="254.66667"
   viewBox="0 0 1458.52 254.66667"
   sodipodi:docname="USN-logo_black-EN.svg"
   inkscape:version="1.4.3 (0d15f75042, 2025-12-25)"
   xmlns:inkscape="http://www.inkscape.org/namespaces/inkscape"
   xmlns:sodipodi="http://sodipodi.sourceforge.net/DTD/sodipodi-0.dtd"
   xmlns="http://www.w3.org/2000/svg"
   xmlns:svg="http://www.w3.org/2000/svg">
  <defs
     id="defs1" />
  <sodipodi:namedview
     id="namedview1"
     pagecolor="#50505000"
     bordercolor="#eeeeeeff"
     borderopacity="1"
     inkscape:showpageshadow="0"
     inkscape:pageopacity="0"
     inkscape:pagecheckerboard="0"
     inkscape:deskcolor="#505050ff"
     inkscape:zoom="1.2142446"
     inkscape:cx="328.18759"
     inkscape:cy="127.65139"
     inkscape:window-width="1920"
     inkscape:window-height="1011"
     inkscape:window-x="0"
     inkscape:window-y="685"
     inkscape:window-maximized="1"
     inkscape:current-layer="layer-MC0" />
  <g
     id="layer-MC0"
     inkscape:groupmode="layer"
     inkscape:label="Layer 1">
    <path
       id="path1"
       d="M 0,0 C -8.25,13.25 -24.5,21.25 -40,29 -60,38.75 -79,48 -79,67.75 -79,89.5 -64,99.5 -42,99 -20,98.5 0,85.25 0,51 Z m 125,106.5 h -11 v -133 L 65,36.75 C 24.75,88.75 -2.75,109 -43.25,109 -75.25,109 -104,91.25 -104,58 c 0,-32.75 25.5,-44 49,-54.75 20,-9 38.75,-17.25 38.75,-38 0,-22.5 -21,-37.25 -52.75,-37.25 -38.75,0 -61.5,24.75 -61.5,66 v 112.5 h -31 v -107 c 0,-60.25 46.75,-81.5 92.5,-81.5 51.25,0 80,27.75 80,64.25 V 58 L 116.5,-79.5 h 8.5 z"
       style="fill:#000000;fill-opacity:1;fill-rule:nonzero;stroke:none"
       transform="matrix(1.3333333,0,0,-1.3333333,215.33333,145.33333)" />
    <path
       id="path2"
       d="m 0,0 h 8.7 v -34.356 c 0,-6.413 3.392,-10.32 10.321,-10.32 7.003,0 10.468,3.981 10.468,10.173 V 0 h 8.627 v -34.798 c 0,-11.206 -7.668,-17.914 -19.095,-17.914 C 7.593,-52.712 0,-46.004 0,-34.798 Z"
       style="fill:#000000;fill-opacity:1;fill-rule:nonzero;stroke:none"
       transform="matrix(1.3333333,0,0,-1.3333333,464.13853,26.335733)" />
    <path
       id="path3"
       d="m 0,0 h 8.108 v -3.76 h 0.147 c 2.066,2.653 6.12,4.865 10.543,4.865 8.553,0 13.935,-5.381 13.935,-14.597 v -25.582 h -8.332 v 23.37 c 0,5.75 -2.063,9.069 -7.594,9.069 -5.16,0 -8.405,-3.171 -8.405,-8.184 V -39.074 H 0 Z"
       style="fill:#000000;fill-opacity:1;fill-rule:nonzero;stroke:none"
       transform="matrix(1.3333333,0,0,-1.3333333,529.2208,43.045733)" />
    <path
       id="path4"
       d="m 440.489,158.716 h 8.402 v -39.074 h -8.402 z m -0.147,14.744 h 8.7 v -8.331 h -8.7 z"
       style="fill:#000000;fill-opacity:1;fill-rule:nonzero;stroke:none"
       transform="matrix(1.3333333,0,0,-1.3333333,0,254.66667)" />
    <path
       id="path5"
       d="m 0,0 h 8.7 l 10.468,-26.984 h 0.147 L 29.783,0 h 8.625 L 22.707,-39.074 h -7.003 z"
       style="fill:#000000;fill-opacity:1;fill-rule:nonzero;stroke:none"
       transform="matrix(1.3333333,0,0,-1.3333333,606.782,43.045733)" />
    <path
       id="path6"
       d="m 0,0 c -0.295,5.234 -3.317,9.363 -9.584,9.363 -6.045,0 -9.139,-4.866 -9.437,-9.363 z m 7.004,-15.335 c -3.023,-4.866 -7.961,-9.141 -16.218,-9.141 -10.616,0 -18.356,7.962 -18.356,20.642 0,12.681 7.74,20.643 17.986,20.643 10.176,0 17.769,-7.814 17.769,-20.643 v -2.507 h -27.278 c 0.22,-6.339 3.539,-10.689 9.731,-10.689 5.973,0 8.625,3.98 10.321,6.636 z"
       style="fill:#000000;fill-opacity:1;fill-rule:nonzero;stroke:none"
       transform="matrix(1.3333333,0,0,-1.3333333,698.6936,63.983867)" />
    <path
       id="path7"
       d="m 0,0 h 7.96 v -4.129 h 0.148 c 1.548,3.022 4.793,4.866 8.11,4.866 1.401,0 2.58,-0.369 3.464,-0.737 l -1.326,-8.184 c -0.812,0.221 -1.768,0.589 -3.097,0.589 -4.424,0 -6.857,-2.948 -6.857,-9.731 V -39.074 H 0 Z"
       style="fill:#000000;fill-opacity:1;fill-rule:nonzero;stroke:none"
       transform="matrix(1.3333333,0,0,-1.3333333,720.914,43.045733)" />
    <path
       id="path8"
       d="m 0,0 c 0.662,-5.75 3.906,-8.92 9.437,-8.92 5.307,0 8.255,1.99 8.255,5.014 0,3.095 -2.433,3.832 -10.763,6.191 -8.847,2.507 -13.124,5.531 -13.124,11.428 0,5.898 5.013,11.575 14.378,11.575 9.361,0 14.227,-4.866 15.998,-11.428 l -7.079,-2.064 c -1.251,3.686 -3.537,6.488 -8.919,6.488 -4.424,0 -6.709,-2.065 -6.709,-4.203 0,-2.58 1.621,-3.243 11.499,-6.044 9.882,-2.802 12.315,-6.415 12.315,-12.091 0,-5.456 -4.499,-11.943 -15.557,-11.943 -11.502,0 -16.44,7.077 -17.399,14.155 z"
       style="fill:#000000;fill-opacity:1;fill-rule:nonzero;stroke:none"
       transform="matrix(1.3333333,0,0,-1.3333333,762.49707,75.2888)" />
    <path
       id="path9"
       d="m 605.421,158.716 h 8.402 v -39.074 h -8.402 z m -0.148,14.744 h 8.7 v -8.331 h -8.7 z"
       style="fill:#000000;fill-opacity:1;fill-rule:nonzero;stroke:none"
       transform="matrix(1.3333333,0,0,-1.3333333,0,254.66667)" />
    <path
       id="path10"
       d="m 0,0 h -5.9 v 7.225 h 6.12 v 9.584 H 8.183 V 7.225 h 9.803 V 0 H 8.255 v -17.915 c 0,-4.055 0.812,-5.825 5.088,-5.825 h 3.097 v -8.109 H 12.679 C 2.875,-31.849 0,-27.426 0,-18.8 Z"
       style="fill:#000000;fill-opacity:1;fill-rule:nonzero;stroke:none"
       transform="matrix(1.3333333,0,0,-1.3333333,836.3284,52.678933)" />
    <path
       id="path11"
       d="m 0,0 -15.186,37.304 h 8.847 L 3.909,10.394 h 0.147 l 10.246,26.91 h 8.7 L 0.739,-18.357 h -8.11 z"
       style="fill:#000000;fill-opacity:1;fill-rule:nonzero;stroke:none"
       transform="matrix(1.3333333,0,0,-1.3333333,884.98507,92.784933)" />
    <path
       id="path12"
       d="m 0,0 c 0,8.479 -4.056,13.05 -9.734,13.05 -5.675,0 -9.804,-4.424 -9.804,-13.05 0,-8.698 4.054,-13.048 9.804,-13.048 C -4.056,-13.048 0,-8.477 0,0 m -27.868,0 c 0,13.344 8.478,20.643 18.134,20.643 9.587,0 17.989,-7.299 17.989,-20.643 0,-13.343 -7.888,-20.642 -17.989,-20.642 -10.173,0 -18.134,7.299 -18.134,20.642"
       style="fill:#000000;fill-opacity:1;fill-rule:nonzero;stroke:none"
       transform="matrix(1.3333333,0,0,-1.3333333,978.37893,69.096)" />
    <path
       id="path13"
       d="m 0,0 h -5.9 v 7.225 h 6.047 v 5.676 c 0,7.004 3.832,9.068 9.657,9.068 H 17.03 V 14.523 H 11.5 c -2.58,0 -3.392,-0.811 -3.392,-3.539 V 7.225 h 9.806 V 0 H 8.33 V -31.849 H 0 Z"
       style="fill:#000000;fill-opacity:1;fill-rule:nonzero;stroke:none"
       transform="matrix(1.3333333,0,0,-1.3333333,1003.1536,52.678933)" />
    <path
       id="path14"
       d="m 0,0 c 1.251,-8.255 3.759,-12.459 11.647,-12.459 6.339,0 10.026,2.728 10.026,7.004 0,4.204 -1.768,5.897 -13.638,9.584 -11.06,3.464 -15.114,8.183 -15.114,14.892 0,7.445 6.045,14.302 16.958,14.302 9.142,0 17.102,-4.349 18.798,-14.155 l -8.478,-2.063 c -1.253,4.571 -3.759,8.11 -10.32,8.11 -5.825,0 -8.405,-2.727 -8.405,-6.119 0,-3.317 1.696,-4.499 13.048,-8.331 12.459,-4.203 15.704,-8.11 15.704,-15.703 0,-8.7 -6.929,-15.556 -18.651,-15.556 -11.797,0 -19.171,6.192 -20.717,18.503 z"
       style="fill:#000000;fill-opacity:1;fill-rule:nonzero;stroke:none"
       transform="matrix(1.3333333,0,0,-1.3333333,470.92253,182.35413)" />
    <path
       id="path15"
       d="m 0,0 c 0,8.48 -4.056,13.051 -9.734,13.051 -5.675,0 -9.804,-4.424 -9.804,-13.051 0,-8.697 4.054,-13.048 9.804,-13.048 C -4.056,-13.048 0,-8.477 0,0 m -27.868,0 c 0,13.346 8.478,20.644 18.134,20.644 9.584,0 17.989,-7.298 17.989,-20.644 0,-13.343 -7.888,-20.642 -17.989,-20.642 -10.173,0 -18.134,7.299 -18.134,20.642"
       style="fill:#000000;fill-opacity:1;fill-rule:nonzero;stroke:none"
       transform="matrix(1.3333333,0,0,-1.3333333,555.46413,182.15773)" />
    <path
       id="path16"
       d="m 0,0 h 8.405 v -24.328 c 0,-5.825 1.991,-7.816 6.856,-7.816 4.719,0 8.036,2.508 8.036,8.405 V 0 h 8.405 v -39.073 h -8.111 v 3.759 H 23.444 C 22.56,-36.567 19.463,-40.179 13.343,-40.179 4.201,-40.179 0,-34.429 0,-25.288 Z"
       style="fill:#000000;fill-opacity:1;fill-rule:nonzero;stroke:none"
       transform="matrix(1.3333333,0,0,-1.3333333,577.28813,156.10747)" />
    <path
       id="path17"
       d="M 0,0 H -5.9 V 7.226 H 0.22 V 16.81 H 8.183 V 7.226 h 9.803 V 0 H 8.255 v -17.914 c 0,-4.054 0.812,-5.825 5.088,-5.825 h 3.097 v -8.108 H 12.679 C 2.875,-31.847 0,-27.423 0,-18.798 Z"
       style="fill:#000000;fill-opacity:1;fill-rule:nonzero;stroke:none"
       transform="matrix(1.3333333,0,0,-1.3333333,636.76533,165.74227)" />
    <path
       id="path18"
       d="M 0,0 H 8.402 V -18.578 H 8.55 c 1.696,2.58 6.267,4.94 10.471,4.94 8.255,0 14.079,-5.308 14.079,-14.302 v -25.877 h -8.33 v 23.886 c 0,4.866 -2.655,8.553 -8.035,8.553 -5.088,0 -8.333,-3.392 -8.333,-7.891 V -53.817 H 0 Z"
       style="fill:#000000;fill-opacity:1;fill-rule:nonzero;stroke:none"
       transform="matrix(1.3333333,0,0,-1.3333333,671.27147,136.44827)" />
    <path
       id="path19"
       d="m 544.375,62.714 h 19.403 v -6.709 h -19.403 z"
       style="fill:#000000;fill-opacity:1;fill-rule:nonzero;stroke:none"
       transform="matrix(1.3333333,0,0,-1.3333333,0,254.66667)" />
    <path
       id="path20"
       d="M 0,0 H 32.144 V -8.038 H 8.7 v -13.268 h 21.378 v -7.741 H 8.7 v -14.524 h 23.444 v -8.036 H 0 Z"
       style="fill:#000000;fill-opacity:1;fill-rule:nonzero;stroke:none"
       transform="matrix(1.3333333,0,0,-1.3333333,762.02827,139.3956)" />
    <path
       id="path21"
       d="m 0,0 c 0,-3.17 2.213,-4.718 6.414,-4.718 6.709,0 9.512,3.244 9.512,6.561 V 9.659 H 15.779 C 15.336,8.7 14.597,7.668 6.856,5.602 0.887,4.129 0,2.138 0,0 m 16.883,-7.004 h -0.148 c -0.367,-0.589 -3.464,-5.013 -11.058,-5.013 -9.731,0 -13.785,5.53 -13.785,11.428 0,6.856 3.832,9.878 13.268,12.164 8.48,2.138 10.471,3.022 10.471,5.825 0,2.505 -2.138,4.643 -7.151,4.643 -5.972,0 -7.743,-3.39 -8.7,-6.857 l -7.151,2.728 c 1.549,6.195 6.562,11.355 15.629,11.355 8.699,0 15.776,-4.129 15.776,-14.892 V -10.91 h -7.151 z"
       style="fill:#000000;fill-opacity:1;fill-rule:nonzero;stroke:none"
       transform="matrix(1.3333333,0,0,-1.3333333,825.53187,193.65733)" />
    <path
       id="path22"
       d="m 0,0 c 0.662,-5.75 3.906,-8.92 9.437,-8.92 5.307,0 8.255,1.989 8.255,5.014 0,3.094 -2.433,3.831 -10.763,6.191 -8.847,2.506 -13.124,5.531 -13.124,11.428 0,5.897 5.013,11.575 14.378,11.575 9.361,0 14.227,-4.866 15.998,-11.428 l -7.079,-2.066 c -1.251,3.687 -3.537,6.49 -8.919,6.49 -4.424,0 -6.709,-2.066 -6.709,-4.204 0,-2.58 1.621,-3.242 11.499,-6.045 9.882,-2.8 12.315,-6.414 12.315,-12.089 0,-5.458 -4.499,-11.944 -15.557,-11.944 -11.502,0 -16.44,7.078 -17.399,14.155 z"
       style="fill:#000000;fill-opacity:1;fill-rule:nonzero;stroke:none"
       transform="matrix(1.3333333,0,0,-1.3333333,876.84627,188.3488)" />
    <path
       id="path23"
       d="M 0,0 H -5.9 V 7.226 H 0.22 V 16.81 H 8.183 V 7.226 h 9.803 V 0 H 8.255 v -17.914 c 0,-4.054 0.812,-5.825 5.088,-5.825 h 3.097 v -8.108 H 12.679 C 2.875,-31.847 0,-27.423 0,-18.798 Z"
       style="fill:#000000;fill-opacity:1;fill-rule:nonzero;stroke:none"
       transform="matrix(1.3333333,0,0,-1.3333333,923.54493,165.74227)" />
    <path
       id="path24"
       d="m 0,0 c -0.295,5.235 -3.317,9.364 -9.584,9.364 -6.045,0 -9.142,-4.865 -9.437,-9.364 z m 7.004,-15.334 c -3.023,-4.865 -7.961,-9.142 -16.218,-9.142 -10.616,0 -18.356,7.963 -18.356,20.642 0,12.681 7.74,20.644 17.986,20.644 10.176,0 17.769,-7.815 17.769,-20.644 v -2.505 h -27.278 c 0.22,-6.34 3.539,-10.691 9.731,-10.691 5.973,0 8.625,3.982 10.321,6.634 z"
       style="fill:#000000;fill-opacity:1;fill-rule:nonzero;stroke:none"
       transform="matrix(1.3333333,0,0,-1.3333333,989.69933,177.04547)" />
    <path
       id="path25"
       d="m 0,0 h 7.96 v -4.129 h 0.148 c 1.548,3.022 4.793,4.866 8.11,4.866 1.401,0 2.58,-0.367 3.464,-0.737 l -1.326,-8.183 c -0.812,0.22 -1.768,0.59 -3.097,0.59 -4.424,0 -6.857,-2.95 -6.857,-9.732 V -39.073 H 0 Z"
       style="fill:#000000;fill-opacity:1;fill-rule:nonzero;stroke:none"
       transform="matrix(1.3333333,0,0,-1.3333333,1011.9232,156.10747)" />
    <path
       id="path26"
       d="m 0,0 h 8.108 v -3.759 h 0.147 c 2.066,2.652 6.12,4.866 10.543,4.866 8.553,0 13.935,-5.383 13.935,-14.597 v -25.583 h -8.332 v 23.369 c 0,5.75 -2.063,9.07 -7.594,9.07 -5.16,0 -8.405,-3.172 -8.405,-8.185 V -39.073 H 0 Z"
       style="fill:#000000;fill-opacity:1;fill-rule:nonzero;stroke:none"
       transform="matrix(1.3333333,0,0,-1.3333333,1047.5083,156.10747)" />
    <path
       id="path27"
       d="m 0,0 h 9.067 l 20.497,-36.495 h 0.147 V 0 h 8.697 V -51.607 H 29.564 L 8.847,-15.114 H 8.7 V -51.607 H 0 Z"
       style="fill:#000000;fill-opacity:1;fill-rule:nonzero;stroke:none"
       transform="matrix(1.3333333,0,0,-1.3333333,1128.0201,139.3956)" />
    <path
       id="path28"
       d="m 0,0 c 0,8.48 -4.056,13.051 -9.734,13.051 -5.675,0 -9.804,-4.424 -9.804,-13.051 0,-8.697 4.054,-13.048 9.804,-13.048 C -4.056,-13.048 0,-8.477 0,0 m -27.868,0 c 0,13.346 8.478,20.644 18.134,20.644 9.587,0 17.989,-7.298 17.989,-20.644 0,-13.343 -7.888,-20.642 -17.989,-20.642 -10.173,0 -18.134,7.299 -18.134,20.642"
       style="fill:#000000;fill-opacity:1;fill-rule:nonzero;stroke:none"
       transform="matrix(1.3333333,0,0,-1.3333333,1228.1945,182.15773)" />
    <path
       id="path29"
       d="m 0,0 h 7.96 v -4.129 h 0.148 c 1.548,3.022 4.793,4.866 8.11,4.866 1.401,0 2.58,-0.367 3.464,-0.737 l -1.326,-8.183 c -0.812,0.22 -1.768,0.59 -3.097,0.59 -4.424,0 -6.857,-2.95 -6.857,-9.732 V -39.073 H 0 Z"
       style="fill:#000000;fill-opacity:1;fill-rule:nonzero;stroke:none"
       transform="matrix(1.3333333,0,0,-1.3333333,1250.2185,156.10747)" />
    <path
       id="path30"
       d="m 0,0 h 8.258 l 5.527,-27.203 h 0.15 L 23.222,0 h 7.596 l 8.697,-27.131 h 0.147 L 45.929,0 h 8.11 L 44.678,-39.073 H 36.567 L 27.056,-9.731 H 26.909 L 16.663,-39.073 H 8.625 Z"
       style="fill:#000000;fill-opacity:1;fill-rule:nonzero;stroke:none"
       transform="matrix(1.3333333,0,0,-1.3333333,1281.8704,156.10747)" />
    <path
       id="path31"
       d="m 0,0 c 0,-3.17 2.213,-4.718 6.414,-4.718 6.709,0 9.512,3.244 9.512,6.561 V 9.659 H 15.778 C 15.336,8.7 14.597,7.668 6.856,5.602 0.887,4.129 0,2.138 0,0 m 16.882,-7.004 h -0.147 c -0.367,-0.589 -3.464,-5.013 -11.058,-5.013 -9.731,0 -13.785,5.53 -13.785,11.428 0,6.856 3.832,9.878 13.268,12.164 8.48,2.138 10.471,3.022 10.471,5.825 0,2.505 -2.138,4.643 -7.151,4.643 -5.972,0 -7.741,-3.39 -8.7,-6.857 l -7.151,2.728 c 1.549,6.195 6.562,11.355 15.629,11.355 8.699,0 15.776,-4.129 15.776,-14.892 V -10.91 h -7.152 z"
       style="fill:#000000;fill-opacity:1;fill-rule:nonzero;stroke:none"
       transform="matrix(1.3333333,0,0,-1.3333333,1370.6416,193.65733)" />
    <path
       id="path32"
       d="m 0,0 -15.187,37.304 h 8.848 L 3.909,10.396 h 0.147 l 10.246,26.908 h 8.7 L 0.739,-18.356 h -8.11 z"
       style="fill:#000000;fill-opacity:1;fill-rule:nonzero;stroke:none"
       transform="matrix(1.3333333,0,0,-1.3333333,1427.8541,205.84653)" />
  </g>
</svg>
